# xmcd
#
# Track frame offsets: 
#        150
#        28849
#        61859
#        118745
#        161198
#        223409
#        255962
#
# Disc length: 4290 seconds
#
# Revision: 3
# Processed by: cddbd v1.5.2PL0 Copyright (c) Steve Scherf et al.
# Submitted via: ExactAudioCopyFreeDBPlugin 1.0
#
DISCID=6410c007
DTITLE=Slaughter, Karin - Zerstört
DYEAR=2009
DGENRE=Hörbuch
TTITLE0=01 Zerstört
TTITLE1=02 Zerstört
TTITLE2=03 Zerstört
TTITLE3=04 Zerstört
TTITLE4=05 Zerstört
TTITLE5=06 Zerstört
TTITLE6=07 Zerstört
EXTD=YEAR: 2009
EXTT0=
EXTT1=
EXTT2=
EXTT3=
EXTT4=
EXTT5=
EXTT6=
PLAYORDER=
